<?xml version="1.0" encoding="utf-8"?>
<svg xmlns="http://www.w3.org/2000/svg" viewBox="0 0 1905.727 736.364"><defs><style>.cls-1{fill:#00a651;opacity:0;}.cls-2,.cls-3{fill:#fff;}.cls-2{fill-rule:evenodd;}</style></defs><title>Elevar_Logo_SVG</title><g id="Layer_1" data-name="Layer 1"><rect class="cls-1" width="1905.727" height="736.364"/><path class="cls-2" d="M449.623,1044.608l15.946-26.245L496.6,964.624l-22.913-39.686-68.559,118.751,41.615.919ZM177.989,1257.414H771.057l-34.8-60.272-111.543-193.2-51.833,89.517,47.733,82.684H328.43l23.105-40.01,152.989-.014,49.877-88.584,48.079-83.287-.49-.135L473.684,741.888,349.695,960.015,212.8,1197.142Z" transform="translate(-51.273 -630.364)"/><path class="cls-3" d="M1707.274,996.081V953h32.635a38.644,38.644,0,0,1,14.193,2.376,19.48,19.48,0,0,1,9.258,7.139,20.958,20.958,0,0,1,3.315,11.9v.509c-.04,6.585-2.422,11.726-7.054,15.464s-11.091,5.608-19.461,5.694Zm-49.462,92.8h49.462v-54.048H1729.2l35.944,54.048H1822l-42.574-62.206a65.824,65.824,0,0,0,19.375-12.364,52.853,52.853,0,0,0,12.745-18.27,62.889,62.889,0,0,0,4.592-24.433V971.1a63.972,63.972,0,0,0-4-23.454,50.826,50.826,0,0,0-11.812-18.1q-8.923-9.048-23.325-14.064-14.411-4.972-34.8-5.056h-84.393Zm-137.668-70.617,20.142-50.481,19.884,50.481Zm-79.034,70.617h51.752l12.75-32.122H1574.7l12.75,32.122h53.023L1564.5,909.146h-47.676ZM1345,1090.155h45.89l72.4-179.735h-54.048l-40.794,112.942L1327.913,910.42h-55.067Zm-228.432-1.274h144.807v-42.065h-95.861v-28.3h85.664v-39h-85.664V952.23h94.59V910.42H1116.565Zm-157.3,0h135.884v-43.339h-86.425V910.42H959.262Zm-170.305,0h144.81v-42.065H837.906v-28.3H923.57v-39H837.906V952.23h94.587V910.42H788.957Z" transform="translate(-51.273 -630.364)"/><path class="cls-3" d="M1795.445,1202.726a39.857,39.857,0,0,0,10.472-1.4,40.308,40.308,0,0,0,8.949-3.655,38.507,38.507,0,0,0,7.134-5.056v-26.366h-27.31v6.711h20.131V1189.4a27.919,27.919,0,0,1-5.279,3.352,32.1,32.1,0,0,1-6.5,2.364,31,31,0,0,1-7.306.9,27.779,27.779,0,0,1-10.873-2.081,23.728,23.728,0,0,1-8.25-5.749,25.876,25.876,0,0,1-5.227-8.711,32.125,32.125,0,0,1-1.826-10.962v-.189a29.612,29.612,0,0,1,1.872-10.458,26.952,26.952,0,0,1,5.2-8.631,23.928,23.928,0,0,1,18.064-8.033,32.558,32.558,0,0,1,8.239.976,25.2,25.2,0,0,1,6.487,2.645,34.521,34.521,0,0,1,5.4,3.939l4.821-5.671a40.22,40.22,0,0,0-6.854-4.755,31.9,31.9,0,0,0-7.941-2.995,42.419,42.419,0,0,0-9.871-1.039,34,34,0,0,0-11.073,1.812,31.78,31.78,0,0,0-9.184,5.01,33.2,33.2,0,0,0-6.962,7.511,34.705,34.705,0,0,0-4.408,9.355,36.511,36.511,0,0,0-1.546,10.52v.192a38.191,38.191,0,0,0,1.5,10.786,34,34,0,0,0,4.357,9.355,30.607,30.607,0,0,0,6.962,7.34,31.282,31.282,0,0,0,9.344,4.817,37.346,37.346,0,0,0,11.479,1.718m-146.823-1.134h7.283V1147.35l42.712,54.242h5.954v-66.149h-7.277v53.015l-41.675-53.015h-7Zm-68.287,0h7.472v-66.149h-7.472Zm-85.864,0h7.563V1142.34h22.209v-6.9h-51.981v6.9h22.209Zm-133.592,0h7.283V1147.35l42.712,54.242h5.954v-66.149h-7.277v53.015l-41.675-53.015h-7Zm-86.711,1.039a32.5,32.5,0,0,0,11.291-1.872,23.3,23.3,0,0,0,8.708-5.545,24.721,24.721,0,0,0,5.611-9.167,38.008,38.008,0,0,0,1.98-12.711v-37.894h-7.466V1173.9a26.965,26.965,0,0,1-2.456,12.08,16.5,16.5,0,0,1-6.9,7.309,21.814,21.814,0,0,1-10.581,2.439,21.583,21.583,0,0,1-10.838-2.614,17.067,17.067,0,0,1-6.928-7.56,27.6,27.6,0,0,1-2.462-12.127v-37.988h-7.46V1173.9a35.818,35.818,0,0,0,2,12.378,24.028,24.028,0,0,0,5.622,8.995,23.623,23.623,0,0,0,8.679,5.5A32.474,32.474,0,0,0,1274.169,1202.631Zm-117.337-6.8a25.939,25.939,0,0,1-10.46-2.155,25.206,25.206,0,0,1-8.25-5.86,26.841,26.841,0,0,1-5.416-8.695,28.991,28.991,0,0,1-1.958-10.6v-.189a29.638,29.638,0,0,1,1.924-10.584,26.392,26.392,0,0,1,5.353-8.614,24.815,24.815,0,0,1,8.193-5.8,26.5,26.5,0,0,1,20.88.032,24.975,24.975,0,0,1,8.256,5.857,27.045,27.045,0,0,1,5.416,8.68,29.013,29.013,0,0,1,1.952,10.615v.192a29.477,29.477,0,0,1-1.918,10.58,26.349,26.349,0,0,1-5.359,8.617,24.551,24.551,0,0,1-8.187,5.8A25.636,25.636,0,0,1,1156.832,1195.826Zm-.189,6.9a34.524,34.524,0,0,0,11.245-1.812,32.433,32.433,0,0,0,9.355-4.975,33.062,33.062,0,0,0,7.116-7.5,34.322,34.322,0,0,0,4.523-9.355,35.884,35.884,0,0,0,1.592-10.57v-.189a36.664,36.664,0,0,0-1.557-10.537,34.143,34.143,0,0,0-4.494-9.321,32.625,32.625,0,0,0-7.054-7.437,32.237,32.237,0,0,0-9.31-4.944,35.366,35.366,0,0,0-11.228-1.781,34.649,34.649,0,0,0-11.244,1.812,32.067,32.067,0,0,0-9.355,4.975,33.254,33.254,0,0,0-7.123,7.5,34.189,34.189,0,0,0-4.517,9.358,35.668,35.668,0,0,0-1.592,10.566v.192a35.863,35.863,0,0,0,1.575,10.534,33.821,33.821,0,0,0,4.472,9.324,32.51,32.51,0,0,0,7.059,7.434,31.679,31.679,0,0,0,9.3,4.929A34.855,34.855,0,0,0,1156.643,1202.726Zm-109.773,0a36.873,36.873,0,0,0,10.66-1.463,31.843,31.843,0,0,0,8.537-4.034,47.407,47.407,0,0,0,7.26-6.126l-4.912-4.821a46.064,46.064,0,0,1-6.332,5.168,26.085,26.085,0,0,1-6.865,3.243,27.511,27.511,0,0,1-8.165,1.133,24.737,24.737,0,0,1-18.27-7.9,27.272,27.272,0,0,1-5.382-8.68,29.935,29.935,0,0,1-1.958-10.727v-.189a29.515,29.515,0,0,1,1.941-10.663,26.523,26.523,0,0,1,5.37-8.6,24.492,24.492,0,0,1,8.13-5.766,25.148,25.148,0,0,1,10.168-2.1,28.153,28.153,0,0,1,8.148,1.166,27.428,27.428,0,0,1,6.773,3.2,40.366,40.366,0,0,1,5.875,4.709l5.1-5.482a45.006,45.006,0,0,0-6.962-5.493,31.246,31.246,0,0,0-8.285-3.655,38.841,38.841,0,0,0-10.552-1.34,34.058,34.058,0,0,0-10.958,1.766,32.337,32.337,0,0,0-9.235,4.881,32.781,32.781,0,0,0-7.088,7.434,34.587,34.587,0,0,0-4.569,9.387,36.65,36.65,0,0,0-1.6,10.741v.192a36.584,36.584,0,0,0,1.62,10.835,33.7,33.7,0,0,0,4.552,9.338,32.436,32.436,0,0,0,7.071,7.34,32.063,32.063,0,0,0,9.155,4.786A33.736,33.736,0,0,0,1046.87,1202.726Zm-109.3,0a36.889,36.889,0,0,0,10.661-1.463,31.847,31.847,0,0,0,8.536-4.034,47.128,47.128,0,0,0,7.26-6.126l-4.912-4.821a46.011,46.011,0,0,1-6.33,5.168,26.113,26.113,0,0,1-6.871,3.243,27.457,27.457,0,0,1-8.159,1.133,24.726,24.726,0,0,1-18.27-7.9,27.267,27.267,0,0,1-5.384-8.68,29.909,29.909,0,0,1-1.955-10.727v-.189a29.514,29.514,0,0,1,1.938-10.663,26.574,26.574,0,0,1,5.371-8.6,24.534,24.534,0,0,1,8.127-5.766,25.182,25.182,0,0,1,10.174-2.1,28.144,28.144,0,0,1,8.145,1.166,27.343,27.343,0,0,1,6.773,3.2,40.206,40.206,0,0,1,5.874,4.709l5.1-5.482a45.156,45.156,0,0,0-6.96-5.493,31.334,31.334,0,0,0-8.284-3.655,38.851,38.851,0,0,0-10.555-1.34,34.077,34.077,0,0,0-10.962,1.766,32.311,32.311,0,0,0-9.229,4.881,32.729,32.729,0,0,0-7.088,7.434,34.325,34.325,0,0,0-4.566,9.387,36.459,36.459,0,0,0-1.606,10.741v.192a36.471,36.471,0,0,0,1.62,10.835,33.6,33.6,0,0,0,4.551,9.338,32.018,32.018,0,0,0,16.223,12.126A33.755,33.755,0,0,0,937.565,1202.726Zm-129.718-25.421,15.121-33.643,15.024,33.643Zm-18.427,24.287h7.655l7.844-17.482h36l7.749,17.482h8.033l-30.147-66.621h-6.993Z" transform="translate(-51.273 -630.364)"/></g></svg>